<svg width="28" height="22" viewBox="0 0 28 22" fill="none" xmlns="http://www.w3.org/2000/svg">
<path d="M11.0281 0C3.50895 5.02251 0 11.2476 0 16.3408C0 20.09 2.14834 22 5.01279 22C8.16368 22 10.1688 19.5241 10.0972 16.6945C6.94629 15.8457 5.37084 14.1479 5.37084 11.5305C5.37084 8.48874 7.37596 5.02251 11.9591 1.55627L11.0281 0ZM27.0691 0C19.5499 5.02251 16.0409 11.2476 16.0409 16.3408C16.0409 20.09 18.1893 22 21.0537 22C24.2046 22 26.2097 19.5241 26.1381 16.6945C22.9872 15.8457 21.4118 14.1479 21.4118 11.5305C21.4118 8.48874 23.4169 5.02251 28 1.55627L27.0691 0Z" fill="#CAD9B8"/>
</svg>
