<svg width="20" height="20" viewBox="0 0 20 20" fill="none" xmlns="http://www.w3.org/2000/svg">
<path d="M18.6872 7.60938C18.609 7.36327 18.4582 7.14654 18.2547 6.98761C18.0511 6.82868 17.8043 6.73496 17.5466 6.71875L12.906 6.39844L11.1872 2.0625C11.0934 1.82375 10.93 1.61867 10.7183 1.47382C10.5066 1.32896 10.2563 1.25099 9.99972 1.25C9.74319 1.25099 9.49287 1.32896 9.28115 1.47382C9.06943 1.61867 8.90607 1.82375 8.81222 2.0625L7.06222 6.42187L2.45285 6.71875C2.19543 6.73601 1.94911 6.83012 1.74576 6.9889C1.54242 7.14768 1.39139 7.36383 1.31222 7.60938C1.23093 7.85869 1.22618 8.12664 1.29859 8.37868C1.37099 8.63072 1.51724 8.85529 1.71847 9.02344L5.26535 12.0234L4.21066 16.1719C4.13769 16.4525 4.15082 16.7486 4.24835 17.0217C4.34588 17.2948 4.52329 17.5322 4.75754 17.7031C4.9849 17.8663 5.25579 17.9579 5.53553 17.9663C5.81528 17.9746 6.09115 17.8993 6.32785 17.75L9.99191 15.4297H10.0075L13.9528 17.9219C14.1552 18.0534 14.3912 18.1239 14.6325 18.125C14.8296 18.1235 15.0237 18.0767 15.1999 17.9884C15.3761 17.9002 15.5297 17.7726 15.6489 17.6157C15.7681 17.4588 15.8497 17.2766 15.8875 17.0832C15.9253 16.8898 15.9183 16.6903 15.8669 16.5L14.7497 11.9609L18.281 9.02344C18.4822 8.85529 18.6285 8.63072 18.7009 8.37868C18.7733 8.12664 18.7685 7.85869 18.6872 7.60938Z" fill="#FDCB0F"/>
</svg>
